<svg width="700" height="500" viewBox="0 0 2333 1891" fill="none" xmlns="http://www.w3.org/2000/svg">
<path d="M228.278 510.481C189.45 510.481 151.493 499.287 119.209 478.313C86.9245 457.339 61.7618 427.529 46.9028 392.651C32.0439 357.773 28.1562 319.394 35.7312 282.368C43.3062 245.341 62.0038 211.331 89.4595 184.636C116.915 157.942 151.896 139.763 189.978 132.398C228.06 125.033 267.533 128.813 303.406 143.26C339.278 157.707 369.939 182.172 391.511 213.561C413.083 244.95 424.597 281.854 424.597 319.606C424.538 370.211 403.836 418.728 367.031 454.512C330.227 490.296 280.327 510.424 228.278 510.481ZM228.278 136.683C191.068 136.683 154.693 147.412 123.753 167.511C92.8142 187.611 68.6999 216.18 54.4601 249.604C40.2204 283.029 36.4946 319.809 43.754 355.292C51.0134 390.776 68.9318 423.369 95.2435 448.951C121.555 474.534 155.078 491.955 191.574 499.013C228.069 506.071 265.898 502.449 300.276 488.604C334.654 474.759 364.037 451.313 384.71 421.232C405.383 391.151 416.417 355.784 416.417 319.606C416.36 271.109 396.52 224.613 361.25 190.321C325.979 156.028 278.158 136.738 228.278 136.683V136.683Z" fill="#F2F2F2"/>
<path d="M1575.12 399.507C1556.15 399.507 1537.62 393.91 1521.85 383.423C1506.08 372.936 1493.8 358.031 1486.54 340.592C1479.28 323.153 1477.38 303.963 1481.08 285.45C1484.78 266.937 1493.91 249.932 1507.32 236.584C1520.73 223.237 1537.81 214.148 1556.41 210.465C1575.01 206.783 1594.29 208.673 1611.81 215.896C1629.33 223.12 1644.3 235.352 1654.84 251.047C1665.37 266.741 1670.99 285.193 1670.99 304.069C1670.97 329.372 1660.85 353.63 1642.88 371.522C1624.91 389.414 1600.54 399.478 1575.12 399.507V399.507ZM1575.12 216.585C1557.74 216.585 1540.74 221.715 1526.29 231.328C1511.84 240.941 1500.57 254.605 1493.92 270.59C1487.27 286.576 1485.53 304.166 1488.92 321.137C1492.31 338.107 1500.68 353.695 1512.97 365.93C1525.26 378.165 1540.92 386.497 1557.97 389.873C1575.02 393.248 1592.69 391.516 1608.75 384.894C1624.81 378.273 1638.54 367.06 1648.19 352.673C1657.85 338.286 1663 321.372 1663 304.069C1662.98 280.875 1653.71 258.638 1637.23 242.237C1620.76 225.836 1598.42 216.611 1575.12 216.585Z" fill="#F2F2F2"/>
<path d="M2184.62 723.552C2155.27 723.552 2126.58 715.351 2102.18 699.986C2077.78 684.622 2058.76 662.784 2047.53 637.234C2036.3 611.684 2033.36 583.569 2039.09 556.445C2044.82 529.321 2058.95 504.406 2079.7 484.851C2100.45 465.296 2126.89 451.979 2155.67 446.583C2184.45 441.188 2214.29 443.957 2241.4 454.54C2268.52 465.124 2291.69 483.046 2307.99 506.04C2324.3 529.035 2333 556.069 2333 583.724C2332.96 620.796 2317.31 656.337 2289.49 682.551C2261.67 708.764 2223.96 723.509 2184.62 723.552V723.552ZM2184.62 455.549C2157.72 455.549 2131.42 463.066 2109.05 477.15C2086.69 491.235 2069.25 511.253 2058.96 534.674C2048.66 558.095 2045.97 583.866 2051.22 608.73C2056.47 633.593 2069.42 656.432 2088.44 674.358C2107.46 692.283 2131.7 704.491 2158.08 709.436C2184.47 714.382 2211.82 711.844 2236.67 702.143C2261.52 692.441 2282.77 676.013 2297.71 654.934C2312.66 633.856 2320.63 609.075 2320.63 583.724C2320.59 549.742 2306.25 517.162 2280.75 493.133C2255.25 469.104 2220.68 455.587 2184.62 455.549Z" fill="#F2F2F2"/>
<path d="M1359.96 1720.44L1320.44 1704.76L1293.33 1518.13H932.278L902.891 1704L867.532 1720.65C865.84 1721.45 864.483 1722.76 863.682 1724.37C862.88 1725.99 862.68 1727.81 863.115 1729.54C863.55 1731.28 864.593 1732.82 866.076 1733.93C867.559 1735.03 869.396 1735.64 871.287 1735.64H1356.71C1358.64 1735.64 1360.52 1735 1362.02 1733.85C1363.52 1732.69 1364.55 1731.08 1364.94 1729.29C1365.32 1727.5 1365.03 1725.64 1364.13 1724.03C1363.22 1722.41 1361.75 1721.15 1359.96 1720.44V1720.44Z" fill="#D7D7D7"/>
<path d="M1996.69 1544.76H226.741C217.454 1544.74 208.555 1541.22 201.996 1534.96C195.437 1528.71 191.753 1520.24 191.753 1511.4V1273.98H2031.67V1511.4C2031.67 1520.24 2027.99 1528.71 2021.43 1534.96C2014.87 1541.22 2005.97 1544.74 1996.69 1544.76V1544.76Z" fill="#CCCCCC"/>
<path d="M2036.24 1380.52H191.753V360C191.766 349.29 196.227 339.023 204.157 331.45C212.086 323.877 222.837 319.618 234.051 319.606H1993.94C2005.15 319.618 2015.91 323.877 2023.84 331.45C2031.77 339.023 2036.23 349.29 2036.24 360V1380.52Z" fill="#3F3D56"/>
<path d="M1926.02 1313.93H301.974C293.329 1313.93 285.042 1310.62 278.929 1304.74C272.816 1298.87 269.378 1290.9 269.368 1282.58V426.419C269.378 418.107 272.816 410.139 278.929 404.261C285.041 398.384 293.329 395.078 301.974 395.068H1926.02C1934.66 395.078 1942.95 398.384 1949.06 404.261C1955.18 410.139 1958.61 418.107 1958.62 426.419V1282.58C1958.61 1290.9 1955.18 1298.87 1949.06 1304.74C1942.95 1310.62 1934.66 1313.93 1926.02 1313.93Z" fill="white"/>
<path d="M407.288 981.012C405.825 981.014 404.422 981.636 403.387 982.742C402.353 983.848 401.771 985.348 401.769 986.913V1188.18C401.771 1189.75 402.353 1191.25 403.387 1192.35C404.422 1193.46 405.825 1194.08 407.288 1194.08H1049.12C1050.59 1194.08 1051.99 1193.46 1053.03 1192.35C1054.06 1191.25 1054.64 1189.75 1054.64 1188.18V986.913C1054.64 985.348 1054.06 983.848 1053.03 982.742C1051.99 981.636 1050.59 981.013 1049.12 981.012L407.288 981.012Z" fill="#E6E6E6"/>
<path d="M1183.43 985.451C1181.97 985.453 1180.57 986.075 1179.53 987.181C1178.5 988.287 1177.92 989.787 1177.91 991.352V1192.62C1177.92 1194.18 1178.5 1195.68 1179.53 1196.79C1180.57 1197.9 1181.97 1198.52 1183.43 1198.52H1825.27C1826.73 1198.52 1828.14 1197.9 1829.17 1196.79C1830.2 1195.68 1830.79 1194.18 1830.79 1192.62V991.352C1830.79 989.787 1830.2 988.287 1829.17 987.181C1828.14 986.075 1826.73 985.453 1825.27 985.451L1183.43 985.451Z" fill="#E6E6E6"/>
<path d="M420.031 1176.33H1036.38V994.329H420.031V1176.33Z" fill="white"/>
<path d="M1196.18 1180.77H1812.53V998.768H1196.18V1180.77Z" fill="white"/>
<path d="M963.342 1140.81C962.142 1140.81 960.954 1141.04 959.845 1141.49C958.736 1141.93 957.728 1142.59 956.879 1143.41C956.03 1144.24 955.357 1145.21 954.897 1146.29C954.438 1147.37 954.201 1148.53 954.201 1149.69C954.201 1150.86 954.438 1152.01 954.897 1153.09C955.357 1154.17 956.03 1155.15 956.879 1155.97C957.728 1156.8 958.736 1157.45 959.845 1157.9C960.954 1158.34 962.142 1158.57 963.342 1158.57H999.859C1002.28 1158.57 1004.6 1157.64 1006.31 1155.97C1008.03 1154.31 1008.99 1152.05 1008.99 1149.69C1008.99 1147.34 1008.03 1145.08 1006.31 1143.41C1004.6 1141.75 1002.28 1140.81 999.859 1140.81H963.342Z" fill="url(#paint0_linear)"/>
<path d="M1739.49 1145.25C1738.29 1145.25 1737.1 1145.48 1735.99 1145.93C1734.88 1146.37 1733.87 1147.03 1733.02 1147.85C1732.18 1148.67 1731.5 1149.65 1731.04 1150.73C1730.58 1151.81 1730.35 1152.96 1730.35 1154.13C1730.35 1155.3 1730.58 1156.45 1731.04 1157.53C1731.5 1158.61 1732.18 1159.59 1733.02 1160.41C1733.87 1161.24 1734.88 1161.89 1735.99 1162.34C1737.1 1162.78 1738.29 1163.01 1739.49 1163.01H1776C1778.43 1163.01 1780.75 1162.07 1782.46 1160.41C1784.17 1158.74 1785.13 1156.49 1785.13 1154.13C1785.13 1151.78 1784.17 1149.52 1782.46 1147.85C1780.75 1146.19 1778.43 1145.25 1776 1145.25H1739.49Z" fill="url(#paint1_linear)"/>
<path d="M1008.99 1118.62H588.957V1123.06H1008.99V1118.62Z" fill="#E6E6E6"/>
<path d="M1785.13 1123.06H1365.1V1127.5H1785.13V1123.06Z" fill="#E6E6E6"/>
<path d="M585.728 634.772L584.391 632.563L628.36 600.291L658.511 616.226L701.88 585.721L702.466 585.995L788.151 626.237L856.852 589.081L923.564 618.858L1007.39 537.115L1008.99 539.102L924.044 621.936L856.946 591.988L788.222 629.156L702.106 588.712L658.679 619.258L628.555 603.338L585.728 634.772Z" fill="#3F3D56"/>
<path d="M1361.87 639.211L1360.54 637.002L1404.5 604.73L1434.66 620.665L1478.02 590.16L1478.61 590.434L1564.3 630.676L1633 593.52L1699.71 623.297L1783.53 541.554L1785.13 543.541L1700.19 626.375L1633.09 596.427L1564.37 633.595L1478.25 593.151L1434.82 623.697L1404.7 607.777L1361.87 639.211Z" fill="#3F3D56"/>
<path d="M497.646 1140.81C525.382 1140.81 547.867 1115.97 547.867 1085.33C547.867 1054.68 525.382 1029.84 497.646 1029.84C469.909 1029.84 447.425 1054.68 447.425 1085.33C447.425 1115.97 469.909 1140.81 497.646 1140.81Z" fill="url(#paint2_linear)"/>
<path d="M1273.79 1145.25C1301.53 1145.25 1324.01 1120.41 1324.01 1089.77C1324.01 1059.12 1301.53 1034.28 1273.79 1034.28C1246.05 1034.28 1223.57 1059.12 1223.57 1089.77C1223.57 1120.41 1246.05 1145.25 1273.79 1145.25Z" fill="url(#paint3_linear)"/>
<path d="M585.728 1105.3L584.391 1103.19L628.36 1072.39L658.511 1087.6L701.88 1058.48L788.151 1097.15L856.852 1061.69L923.564 1090.11L1007.39 1012.08L1008.99 1013.98L924.044 1093.05L856.946 1064.46L788.221 1099.94L702.105 1061.33L658.679 1090.49L628.555 1075.3L585.728 1105.3Z" fill="#3F3D56"/>
<path d="M1361.87 1109.74L1360.54 1107.63L1404.5 1076.83L1434.66 1092.04L1478.02 1062.92L1564.3 1101.59L1633 1066.13L1699.71 1094.55L1783.53 1016.52L1785.13 1018.42L1700.19 1097.49L1633.09 1068.9L1564.37 1104.38L1478.25 1065.77L1434.82 1094.93L1404.7 1079.74L1361.87 1109.74Z" fill="#3F3D56"/>
<path d="M596.661 1140.81C595.649 1140.81 594.648 1141.04 593.713 1141.49C592.779 1141.93 591.929 1142.59 591.214 1143.41C590.498 1144.24 589.931 1145.21 589.543 1146.29C589.156 1147.37 588.957 1148.53 588.957 1149.69C588.957 1150.86 589.156 1152.01 589.543 1153.09C589.931 1154.17 590.498 1155.15 591.214 1155.97C591.929 1156.8 592.779 1157.45 593.713 1157.9C594.648 1158.34 595.649 1158.57 596.661 1158.57H677.15C679.188 1158.57 681.143 1157.63 682.584 1155.97C684.024 1154.3 684.834 1152.05 684.834 1149.69C684.834 1147.34 684.024 1145.08 682.584 1143.42C681.143 1141.75 679.188 1140.82 677.15 1140.81H596.661Z" fill="#E6E6E6"/>
<path d="M1372.81 1145.25C1371.79 1145.25 1370.79 1145.48 1369.86 1145.93C1368.92 1146.37 1368.07 1147.03 1367.36 1147.85C1366.64 1148.67 1366.08 1149.65 1365.69 1150.73C1365.3 1151.81 1365.1 1152.96 1365.1 1154.13C1365.1 1155.3 1365.3 1156.45 1365.69 1157.53C1366.08 1158.61 1366.64 1159.59 1367.36 1160.41C1368.07 1161.24 1368.92 1161.89 1369.86 1162.34C1370.79 1162.78 1371.79 1163.01 1372.81 1163.01H1453.29C1455.33 1163.01 1457.29 1162.07 1458.73 1160.4C1460.17 1158.74 1460.98 1156.48 1460.98 1154.13C1460.98 1151.78 1460.17 1149.52 1458.73 1147.86C1457.29 1146.19 1455.33 1145.26 1453.29 1145.25H1372.81Z" fill="#E6E6E6"/>
<path d="M520.24 1065.35H529.484L510.25 1081.32C506.89 1084.09 502.361 1085.65 497.643 1085.65C492.925 1085.65 488.397 1084.09 485.037 1081.32L465.804 1065.35H475.048L489.66 1077.48C491.788 1079.24 494.656 1080.22 497.644 1080.22C500.633 1080.22 503.501 1079.24 505.629 1077.48L520.24 1065.35ZM474.931 1109.74H465.687L485.039 1093.68C488.399 1090.9 492.928 1089.35 497.646 1089.35C502.364 1089.35 506.892 1090.9 510.252 1093.68L529.605 1109.74H520.361L505.629 1097.52C503.501 1095.76 500.633 1094.77 497.645 1094.77C494.656 1094.77 491.788 1095.76 489.66 1097.52L474.931 1109.74Z" fill="white"/>
<path d="M1296.39 1069.79H1305.63L1286.39 1085.75C1283.03 1088.53 1278.51 1090.09 1273.79 1090.09C1269.07 1090.09 1264.54 1088.53 1261.18 1085.75L1241.95 1069.79H1251.19L1265.8 1081.92C1267.93 1083.68 1270.8 1084.66 1273.79 1084.66C1276.78 1084.66 1279.65 1083.68 1281.77 1081.92L1296.39 1069.79ZM1251.08 1114.18H1241.83L1261.18 1098.12C1264.54 1095.34 1269.07 1093.78 1273.79 1093.78C1278.51 1093.78 1283.04 1095.34 1286.4 1098.12L1305.75 1114.18H1296.51L1281.77 1101.96C1279.65 1100.2 1276.78 1099.21 1273.79 1099.21C1270.8 1099.21 1267.93 1100.2 1265.8 1101.96L1251.08 1114.18Z" fill="white"/>
<path d="M407.288 506.042C405.825 506.044 404.422 506.666 403.387 507.773C402.353 508.879 401.771 510.379 401.769 511.943V713.212C401.771 714.776 402.353 716.276 403.387 717.382C404.422 718.489 405.825 719.111 407.288 719.113H1049.12C1050.59 719.111 1051.99 718.489 1053.03 717.382C1054.06 716.276 1054.64 714.776 1054.64 713.212V511.943C1054.64 510.379 1054.06 508.879 1053.03 507.773C1051.99 506.666 1050.59 506.044 1049.12 506.042L407.288 506.042Z" fill="#E6E6E6"/>
<path d="M1183.43 510.481C1181.97 510.483 1180.57 511.105 1179.53 512.212C1178.5 513.318 1177.92 514.818 1177.91 516.382V717.651C1177.92 719.215 1178.5 720.715 1179.53 721.821C1180.57 722.927 1181.97 723.55 1183.43 723.552H1825.27C1826.73 723.55 1828.14 722.927 1829.17 721.821C1830.2 720.715 1830.79 719.215 1830.79 717.651V516.382C1830.79 514.818 1830.2 513.318 1829.17 512.212C1828.14 511.105 1826.73 510.483 1825.27 510.481L1183.43 510.481Z" fill="#E6E6E6"/>
<path d="M420.031 705.796H1036.38V523.798H420.031V705.796Z" fill="white"/>
<path d="M1196.18 710.235H1812.53V528.237H1196.18V710.235Z" fill="white"/>
<path d="M963.333 665.845C960.911 665.845 958.588 666.78 956.876 668.445C955.164 670.11 954.201 672.368 954.201 674.723C954.201 677.077 955.164 679.336 956.876 681.001C958.588 682.665 960.911 683.601 963.333 683.601H999.857C1002.28 683.601 1004.6 682.665 1006.31 681.001C1008.03 679.336 1008.99 677.077 1008.99 674.723C1008.99 672.368 1008.03 670.11 1006.31 668.445C1004.6 666.78 1002.28 665.845 999.857 665.845H963.333Z" fill="url(#paint4_linear)"/>
<path d="M1739.48 670.284C1737.06 670.284 1734.73 671.219 1733.02 672.884C1731.31 674.549 1730.35 676.807 1730.35 679.162C1730.35 681.517 1731.31 683.775 1733.02 685.44C1734.73 687.105 1737.06 688.04 1739.48 688.04H1776C1778.42 688.04 1780.75 687.105 1782.46 685.44C1784.17 683.775 1785.13 681.517 1785.13 679.162C1785.13 676.807 1784.17 674.549 1782.46 672.884C1780.75 671.219 1778.42 670.284 1776 670.284H1739.48Z" fill="url(#paint5_linear)"/>
<path d="M1008.99 643.65H588.957V648.089H1008.99V643.65Z" fill="#E6E6E6"/>
<path d="M1785.13 648.089H1365.1V652.528H1785.13V648.089Z" fill="#E6E6E6"/>
<path d="M497.646 670.284C525.382 670.284 547.867 645.442 547.867 614.797C547.867 584.152 525.382 559.31 497.646 559.31C469.909 559.31 447.425 584.152 447.425 614.797C447.425 645.442 469.909 670.284 497.646 670.284Z" fill="url(#paint6_linear)"/>
<path d="M1273.79 674.723C1301.53 674.723 1324.01 649.881 1324.01 619.236C1324.01 588.591 1301.53 563.749 1273.79 563.749C1246.05 563.749 1223.57 588.591 1223.57 619.236C1223.57 649.881 1246.05 674.723 1273.79 674.723Z" fill="url(#paint7_linear)"/>
<path d="M596.642 665.845C594.603 665.848 592.648 666.785 591.207 668.449C589.766 670.114 588.957 672.37 588.957 674.723C588.957 677.076 589.766 679.332 591.207 680.997C592.648 682.661 594.603 683.598 596.642 683.601H677.139C679.18 683.601 681.137 682.665 682.58 681.001C684.023 679.336 684.834 677.077 684.834 674.723C684.834 672.368 684.023 670.11 682.58 668.445C681.137 666.78 679.18 665.845 677.139 665.845H596.642Z" fill="#E6E6E6"/>
<path d="M1372.79 670.284C1370.75 670.287 1368.79 671.224 1367.35 672.888C1365.91 674.553 1365.1 676.809 1365.1 679.162C1365.1 681.515 1365.91 683.771 1367.35 685.436C1368.79 687.1 1370.75 688.037 1372.79 688.04H1453.28C1455.32 688.04 1457.28 687.105 1458.72 685.44C1460.17 683.775 1460.98 681.517 1460.98 679.162C1460.98 676.807 1460.17 674.549 1458.72 672.884C1457.28 671.219 1455.32 670.284 1453.28 670.284H1372.79Z" fill="#E6E6E6"/>
<path d="M520.343 606.487C521.386 599.957 516.068 596.447 508.796 594.106L511.155 585.26L505.393 583.918L503.097 592.531C501.584 592.178 500.029 591.845 498.484 591.515L500.797 582.846L495.041 581.505L492.68 590.347C491.427 590.08 490.197 589.816 489.002 589.539L489.009 589.511L481.066 587.657L479.534 593.408C479.534 593.408 483.807 594.323 483.717 594.38C484.514 594.469 485.242 594.847 485.743 595.433C486.245 596.019 486.481 596.765 486.401 597.511L483.714 607.588C483.917 607.636 484.117 607.695 484.312 607.768L483.705 607.626L479.937 621.742C479.855 621.989 479.72 622.217 479.543 622.415C479.365 622.613 479.147 622.776 478.902 622.895C478.657 623.014 478.389 623.086 478.114 623.108C477.838 623.13 477.561 623.1 477.298 623.021C477.355 623.1 473.112 622.045 473.112 622.045L470.252 628.209L477.749 629.956C479.143 630.283 480.51 630.625 481.853 630.947L479.47 639.895L485.223 641.236L487.585 632.385C489.155 632.784 490.681 633.152 492.173 633.498L489.821 642.308L495.58 643.65L497.964 634.721C507.785 636.458 515.172 635.757 518.277 627.455C520.782 620.769 518.154 616.912 512.987 614.395C516.75 613.581 519.585 611.267 520.341 606.487L520.343 606.487ZM507.181 623.738C505.4 630.424 493.359 626.811 489.453 625.903L492.616 614.05C496.52 614.961 509.038 616.765 507.183 623.738H507.181ZM508.961 606.39C507.337 612.472 497.314 609.382 494.061 608.625L496.929 597.875C500.182 598.632 510.654 600.046 508.961 606.39V606.39Z" fill="white"/>
<path d="M1296.49 610.926C1297.53 604.396 1292.21 600.886 1284.94 598.545L1287.3 589.699L1281.54 588.357L1279.24 596.97C1277.73 596.617 1276.17 596.284 1274.63 595.954L1276.94 587.285L1271.19 585.944L1268.82 594.786C1267.57 594.519 1266.34 594.255 1265.15 593.978L1265.15 593.95L1257.21 592.096L1255.68 597.847C1255.68 597.847 1259.95 598.762 1259.86 598.819C1260.66 598.908 1261.39 599.286 1261.89 599.872C1262.39 600.458 1262.63 601.204 1262.55 601.95L1259.86 612.027C1260.06 612.075 1260.26 612.134 1260.46 612.207L1259.85 612.065L1256.08 626.181C1256 626.428 1255.87 626.656 1255.69 626.854C1255.51 627.052 1255.29 627.215 1255.05 627.334C1254.8 627.453 1254.53 627.525 1254.26 627.547C1253.98 627.569 1253.71 627.539 1253.44 627.46C1253.5 627.539 1249.26 626.484 1249.26 626.484L1246.4 632.648L1253.89 634.395C1255.29 634.722 1256.65 635.064 1258 635.386L1255.61 644.334L1261.37 645.675L1263.73 636.824C1265.3 637.223 1266.83 637.591 1268.32 637.937L1265.97 646.747L1271.73 648.089L1274.11 639.16C1283.93 640.897 1291.32 640.196 1294.42 631.894C1296.93 625.208 1294.3 621.351 1289.13 618.834C1292.89 618.02 1295.73 615.706 1296.49 610.926L1296.49 610.926ZM1283.33 628.177C1281.54 634.863 1269.5 631.25 1265.6 630.342L1268.76 618.489C1272.67 619.4 1285.18 621.204 1283.33 628.177H1283.33ZM1285.11 610.829C1283.48 616.911 1273.46 613.821 1270.21 613.064L1273.07 602.314C1276.33 603.071 1286.8 604.485 1285.11 610.829V610.829Z" fill="white"/>
<path d="M407.288 745.746C405.825 745.748 404.422 746.371 403.387 747.477C402.353 748.583 401.771 750.083 401.769 751.648V952.916C401.771 954.48 402.353 955.98 403.387 957.086C404.422 958.193 405.825 958.815 407.288 958.817H1049.13C1050.59 958.815 1051.99 958.193 1053.03 957.086C1054.06 955.98 1054.64 954.48 1054.64 952.916V751.647C1054.64 750.083 1054.06 748.583 1053.03 747.477C1051.99 746.371 1050.59 745.748 1049.13 745.746L407.288 745.746Z" fill="#E6E6E6"/>
<path d="M1183.43 750.185C1181.97 750.187 1180.57 750.81 1179.53 751.916C1178.5 753.022 1177.92 754.522 1177.91 756.086V957.355C1177.92 958.919 1178.5 960.419 1179.53 961.525C1180.57 962.632 1181.97 963.254 1183.43 963.256H1825.27C1826.73 963.254 1828.14 962.632 1829.17 961.525C1830.2 960.419 1830.79 958.919 1830.79 957.355V756.086C1830.79 754.522 1830.2 753.022 1829.17 751.916C1828.14 750.81 1826.73 750.187 1825.27 750.185L1183.43 750.185Z" fill="#E6E6E6"/>
<path d="M420.031 945.5H1036.38V763.502H420.031V945.5Z" fill="white"/>
<path d="M1196.18 949.939H1812.53V767.941H1196.18V949.939Z" fill="white"/>
<path d="M963.333 905.549C960.911 905.549 958.588 906.485 956.876 908.15C955.164 909.814 954.201 912.073 954.201 914.427C954.201 916.782 955.164 919.04 956.876 920.705C958.588 922.37 960.911 923.305 963.333 923.305H999.857C1002.28 923.305 1004.6 922.37 1006.31 920.705C1008.03 919.04 1008.99 916.782 1008.99 914.427C1008.99 912.073 1008.03 909.814 1006.31 908.15C1004.6 906.485 1002.28 905.549 999.857 905.549H963.333V905.549Z" fill="url(#paint8_linear)"/>
<path d="M1739.48 909.988C1737.06 909.988 1734.73 910.924 1733.02 912.588C1731.31 914.253 1730.35 916.512 1730.35 918.866C1730.35 921.221 1731.31 923.479 1733.02 925.144C1734.73 926.809 1737.06 927.744 1739.48 927.744H1776C1778.42 927.744 1780.75 926.809 1782.46 925.144C1784.17 923.479 1785.13 921.221 1785.13 918.866C1785.13 916.512 1784.17 914.253 1782.46 912.588C1780.75 910.924 1778.42 909.988 1776 909.988H1739.48V909.988Z" fill="url(#paint9_linear)"/>
<path d="M497.646 909.988C525.382 909.988 547.867 885.146 547.867 854.501C547.867 823.856 525.382 799.014 497.646 799.014C469.909 799.014 447.425 823.856 447.425 854.501C447.425 885.146 469.909 909.988 497.646 909.988Z" fill="url(#paint10_linear)"/>
<path d="M1273.79 914.427C1301.53 914.427 1324.01 889.585 1324.01 858.94C1324.01 828.295 1301.53 803.453 1273.79 803.453C1246.05 803.453 1223.57 828.295 1223.57 858.94C1223.57 889.585 1246.05 914.427 1273.79 914.427Z" fill="url(#paint11_linear)"/>
<path d="M585.729 874.476L584.391 872.268L628.36 839.996L658.512 855.93L701.88 825.425L702.467 825.699L788.15 865.941L856.853 828.786L923.564 858.561L1007.39 776.819L1008.99 778.808L924.044 861.64L856.947 831.692L788.221 868.86L702.107 828.416L658.679 858.963L628.556 843.044L585.729 874.476Z" fill="#3F3D56"/>
<path d="M1361.87 878.915L1360.54 876.707L1404.5 844.435L1434.66 860.369L1478.02 829.864L1478.61 830.138L1564.3 870.38L1633 833.225L1699.71 863L1783.53 781.258L1785.13 783.247L1700.19 866.079L1633.09 836.131L1564.37 873.299L1478.25 832.855L1434.82 863.402L1404.7 847.483L1361.87 878.915Z" fill="#3F3D56"/>
<path d="M596.651 909.988C594.61 909.988 592.653 910.69 591.21 911.938C589.768 913.187 588.957 914.881 588.957 916.647C588.957 918.413 589.768 920.106 591.21 921.355C592.653 922.604 594.61 923.305 596.651 923.305H677.14C679.18 923.305 681.137 922.604 682.58 921.355C684.023 920.106 684.834 918.413 684.834 916.647C684.834 914.881 684.023 913.187 682.58 911.938C681.137 910.69 679.18 909.988 677.14 909.988H596.651Z" fill="#E6E6E6"/>
<path d="M1372.8 914.427C1370.76 914.427 1368.8 915.129 1367.36 916.377C1365.91 917.626 1365.1 919.32 1365.1 921.086C1365.1 922.852 1365.91 924.545 1367.36 925.794C1368.8 927.043 1370.76 927.744 1372.8 927.744H1453.28C1455.33 927.744 1457.28 927.043 1458.73 925.794C1460.17 924.545 1460.98 922.852 1460.98 921.086C1460.98 919.32 1460.17 917.626 1458.73 916.377C1457.28 915.129 1455.33 914.427 1453.28 914.427H1372.8Z" fill="#E6E6E6"/>
<path d="M497.639 887.793L520.474 856.721L497.639 869.748L474.818 856.721L497.638 887.793H497.639Z" fill="white"/>
<path d="M1273.78 892.232L1296.62 861.159L1273.78 874.187L1250.96 861.159L1273.78 892.232H1273.78Z" fill="white"/>
<path d="M497.644 865.599H497.646L520.474 852.773L497.646 816.77H497.644L474.818 852.773L497.644 865.599Z" fill="white"/>
<path d="M1273.79 870.038H1273.79L1296.62 857.212L1273.79 821.209H1273.79L1250.96 857.212L1273.79 870.038Z" fill="white"/>
<path d="M1913.4 1735.64H337.422C336.325 1735.64 335.273 1735.17 334.497 1734.34C333.721 1733.5 333.286 1732.37 333.286 1731.2C333.286 1730.02 333.721 1728.89 334.497 1728.06C335.273 1727.23 336.325 1726.76 337.422 1726.76H1913.4C1914.49 1726.76 1915.55 1727.23 1916.32 1728.06C1917.1 1728.89 1917.53 1730.02 1917.53 1731.2C1917.53 1732.37 1917.1 1733.5 1916.32 1734.34C1915.55 1735.17 1914.49 1735.64 1913.4 1735.64Z" fill="#CCCCCC"/>
<defs>
<linearGradient id="paint0_linear" x1="981.595" y1="1140.81" x2="981.595" y2="1158.57" gradientUnits="userSpaceOnUse">
<stop stop-color="#667EEA"/>
<stop offset="0.9999" stop-color="#667EEA"/>
<stop offset="1" stop-color="#764BA2"/>
</linearGradient>
<linearGradient id="paint1_linear" x1="1757.74" y1="1145.25" x2="1757.74" y2="1163.01" gradientUnits="userSpaceOnUse">
<stop stop-color="#667EEA"/>
<stop offset="0.9999" stop-color="#667EEA"/>
<stop offset="1" stop-color="#764BA2"/>
</linearGradient>
<linearGradient id="paint2_linear" x1="497.646" y1="1029.84" x2="497.646" y2="1140.81" gradientUnits="userSpaceOnUse">
<stop stop-color="#667EEA"/>
<stop offset="1" stop-color="#764BA2"/>
</linearGradient>
<linearGradient id="paint3_linear" x1="1273.79" y1="1034.28" x2="1273.79" y2="1145.25" gradientUnits="userSpaceOnUse">
<stop stop-color="#667EEA"/>
<stop offset="1" stop-color="#764BA2"/>
</linearGradient>
<linearGradient id="paint4_linear" x1="981.595" y1="665.845" x2="981.595" y2="683.601" gradientUnits="userSpaceOnUse">
<stop stop-color="#667EEA"/>
<stop offset="0.9999" stop-color="#667EEA"/>
<stop offset="1" stop-color="#764BA2"/>
</linearGradient>
<linearGradient id="paint5_linear" x1="1757.74" y1="670.284" x2="1757.74" y2="688.04" gradientUnits="userSpaceOnUse">
<stop stop-color="#667EEA"/>
<stop offset="0.9999" stop-color="#667EEA"/>
<stop offset="1" stop-color="#764BA2"/>
</linearGradient>
<linearGradient id="paint6_linear" x1="497.646" y1="559.31" x2="497.646" y2="670.284" gradientUnits="userSpaceOnUse">
<stop stop-color="#667EEA"/>
<stop offset="1" stop-color="#764BA2"/>
</linearGradient>
<linearGradient id="paint7_linear" x1="1273.79" y1="563.749" x2="1273.79" y2="674.723" gradientUnits="userSpaceOnUse">
<stop stop-color="#667EEA"/>
<stop offset="1" stop-color="#764BA2"/>
</linearGradient>
<linearGradient id="paint8_linear" x1="981.595" y1="905.549" x2="981.595" y2="923.305" gradientUnits="userSpaceOnUse">
<stop stop-color="#667EEA"/>
<stop offset="0.9999" stop-color="#667EEA"/>
<stop offset="1" stop-color="#764BA2"/>
</linearGradient>
<linearGradient id="paint9_linear" x1="1757.74" y1="909.988" x2="1757.74" y2="927.744" gradientUnits="userSpaceOnUse">
<stop stop-color="#667EEA"/>
<stop offset="0.9999" stop-color="#667EEA"/>
<stop offset="1" stop-color="#764BA2"/>
</linearGradient>
<linearGradient id="paint10_linear" x1="497.646" y1="799.014" x2="497.646" y2="909.988" gradientUnits="userSpaceOnUse">
<stop stop-color="#667EEA"/>
<stop offset="1" stop-color="#764BA2"/>
</linearGradient>
<linearGradient id="paint11_linear" x1="1273.79" y1="803.453" x2="1273.79" y2="914.427" gradientUnits="userSpaceOnUse">
<stop stop-color="#667EEA"/>
<stop offset="1" stop-color="#764BA2"/>
</linearGradient>
</defs>
</svg>
