<svg width="50" height="30" viewBox="0 0 50 30" fill="none" xmlns="http://www.w3.org/2000/svg">
<rect width="49.1364" height="28.2487" rx="5" transform="matrix(0.999608 -0.0279903 0.0312539 0.999511 0 1.37534)" fill="#D6D0F0"/>
<rect y="0.566048" width="45.3103" height="29.434" rx="5" fill="url(#paint0_linear)"/>
<path d="M24.8486 12.2762C25.4947 13.9324 25.6366 15.7404 25.2566 17.4717C24.8766 19.203 23.9916 20.7798 22.7135 22.0027C21.4354 23.2256 19.8217 24.0398 18.0764 24.3422C16.331 24.6445 14.5324 24.4216 12.908 23.7016C11.2835 22.9815 9.90621 21.7967 8.95017 20.2969C7.99413 18.7971 7.50229 17.0497 7.53685 15.2756C7.5714 13.5014 8.1308 11.7803 9.1443 10.3298C10.1578 8.87933 11.5799 7.76458 13.2308 7.12653C14.3272 6.70288 15.4975 6.50003 16.6748 6.52955C17.852 6.55907 19.0132 6.82039 20.092 7.29859C21.1709 7.77679 22.1462 8.4625 22.9623 9.31657C23.7785 10.1706 24.4194 11.1763 24.8486 12.2762V12.2762Z" fill="white"/>
<path d="M18.4183 11.7859C17.7204 10.7487 16.5706 10.9074 15.3131 11.467L14.492 9.94695L13.5616 10.4616L14.361 11.9416C14.1164 12.0769 13.869 12.22 13.6232 12.3623L12.8187 10.8724L11.8887 11.3867L12.7092 12.9065C12.5099 13.022 12.3141 13.1351 12.1213 13.2419L12.1186 13.2373L10.8351 13.9466L11.3691 14.9346C11.3691 14.9346 12.0491 14.5416 12.0445 14.5605C12.1609 14.4759 12.3052 14.44 12.4462 14.4604C12.5872 14.4809 12.7138 14.5561 12.7987 14.6699L13.7342 16.4015C13.7671 16.3834 13.8011 16.3673 13.836 16.3536C13.805 16.3708 13.7717 16.3889 13.7378 16.4081L15.0479 18.8341C15.0685 18.8785 15.0801 18.9267 15.082 18.9759C15.0839 19.0252 15.0761 19.0744 15.059 19.1208C15.0419 19.1673 15.0158 19.21 14.9823 19.2466C14.9488 19.2831 14.9086 19.3128 14.8638 19.3339C14.8814 19.3378 14.1874 19.7078 14.1874 19.7078L14.5993 20.915L15.8102 20.2453C16.0356 20.121 16.2594 20.0021 16.4778 19.8831L17.3086 21.4203L18.2381 20.9064L17.4165 19.3853C17.6745 19.2494 17.9226 19.1149 18.1636 18.9813L18.981 20.4956L19.9114 19.981L19.0828 18.4462C20.5989 17.4918 21.4821 16.4944 20.829 14.9585C20.3034 13.7216 19.4635 13.5045 18.461 13.7835C18.853 13.212 18.9303 12.5442 18.4183 11.7859ZM18.8921 15.7931C19.5132 16.9417 17.4643 17.9051 16.834 18.2544L15.734 16.2174C16.3649 15.8687 18.2449 14.5947 18.8921 15.7931ZM16.9071 13.1586C17.4714 14.204 15.7556 14.9945 15.2304 15.285L14.2326 13.4376C14.7578 13.147 16.3181 12.0685 16.9071 13.1586Z" fill="url(#paint1_linear)"/>
<defs>
<linearGradient id="paint0_linear" x1="-1.10536e-07" y1="15.3456" x2="32.3603" y2="17.8666" gradientUnits="userSpaceOnUse">
<stop stop-color="#F4F1F1"/>
<stop offset="1" stop-color="#93A6FD"/>
</linearGradient>
<linearGradient id="paint1_linear" x1="11.1411" y1="17.0294" x2="45.4698" y2="25.0722" gradientUnits="userSpaceOnUse">
<stop stop-color="#667EEA"/>
<stop offset="1" stop-color="#764BA2"/>
</linearGradient>
</defs>
</svg>